<svg width="24" height="24" viewBox="0 0 24 24" fill="none" xmlns="http://www.w3.org/2000/svg">
<path fill-rule="evenodd" clip-rule="evenodd" d="M12 24C18.6274 24 24 18.6274 24 12C24 5.37258 18.6274 0 12 0C5.37258 0 0 5.37258 0 12C0 18.6274 5.37258 24 12 24ZM4.36364 16.0909C4.36364 16.844 5.00467 17.4545 5.79545 17.4545H18.2045C18.9953 17.4545 19.6364 16.844 19.6364 16.0909V7.90909C19.6364 7.15597 18.9953 6.54545 18.2045 6.54545H5.79545C5.00467 6.54545 4.36364 7.15597 4.36364 7.90909V16.0909ZM6.03409 9.72727C6.03409 8.84864 6.78198 8.13636 7.70455 8.13636C8.62711 8.13636 9.375 8.84864 9.375 9.72727C9.375 10.6059 8.62711 11.3182 7.70455 11.3182C6.78198 11.3182 6.03409 10.6059 6.03409 9.72727ZM17.7273 12.4545V15.6364H6.27273V14.2727L8.40596 12.2411C8.54577 12.1079 8.77241 12.1079 8.91219 12.2411L10.5682 13.8182L14.6105 9.96832C14.7503 9.8352 14.977 9.8352 15.1167 9.96832L17.7273 12.4545Z" fill="#F2F2F2"/>
</svg>
