<svg width="24" height="24" viewBox="0 0 24 24" fill="none" xmlns="http://www.w3.org/2000/svg">
<path fill-rule="evenodd" clip-rule="evenodd" d="M12 24C18.6274 24 24 18.6274 24 12C24 5.37259 18.6274 0 12 0C5.37259 0 0 5.37259 0 12C0 18.6274 5.37259 24 12 24ZM15.9393 5.43935L18.5607 8.06065C18.842 8.34196 19 8.7235 19 9.12131V17.5C19 18.3284 18.3284 19 17.5 19H6.5C5.67157 19 5 18.3284 5 17.5V6.5C5 5.67157 5.67157 5 6.5 5H14.8787C15.2765 5 15.658 5.15804 15.9393 5.43935ZM10 15C10 16.1046 10.8954 17 12 17C13.1046 17 14 16.1046 14 15C14 13.8954 13.1046 13 12 13C10.8954 13 10 13.8954 10 15ZM15 10.625V7.48375C15 7.43451 14.9903 7.38574 14.9715 7.34024C14.9526 7.29475 14.925 7.2534 14.8902 7.2186L14.7814 7.10985C14.7111 7.03951 14.6157 7 14.5163 7H7.375C7.16791 7 7 7.16791 7 7.375V10.625C7 10.8321 7.16791 11 7.375 11H14.625C14.8321 11 15 10.8321 15 10.625Z" fill="#F2F2F2"/>
</svg>
