<svg width="24" height="24" viewBox="0 0 24 24" fill="none" xmlns="http://www.w3.org/2000/svg">
<path fill-rule="evenodd" clip-rule="evenodd" d="M12 24C18.6274 24 24 18.6274 24 12C24 5.37258 18.6274 0 12 0C5.37258 0 0 5.37258 0 12C0 18.6274 5.37258 24 12 24ZM17.0537 10.4919L13.5078 6.94601L5.81051 14.6428L5.45875 17.8064C5.41166 18.2297 5.76924 18.5875 6.19247 18.5407L9.35394 18.1917L17.0537 10.4919ZM17.5819 4.75315L19.2469 6.41808C19.7662 6.93742 19.7662 7.77945 19.2469 8.29906L17.6806 9.86539L14.1346 6.31948L15.701 4.75315C16.2203 4.23381 17.0626 4.23381 17.5819 4.75315Z" fill="#F2F2F2"/>
</svg>
