<svg width="24" height="24" viewBox="0 0 24 24" fill="none" xmlns="http://www.w3.org/2000/svg">
<path d="M3.51472 3.51472C-1.17271 8.20215 -1.17271 15.7978 3.51472 20.4853C8.20215 25.1727 15.7978 25.1727 20.4853 20.4853C25.1727 15.7978 25.1727 8.20215 20.4853 3.51472C15.7978 -1.17271 8.20215 -1.17271 3.51472 3.51472ZM18.3879 10.0669C18.7095 10.0669 18.9696 10.3269 18.9696 10.6485L18.9661 13.3549C18.9661 13.6765 18.7061 13.9366 18.3845 13.9366L13.916 13.916L13.9331 18.3879C13.9331 18.7095 13.6731 18.9696 13.3515 18.9696L10.6451 18.9661C10.3235 18.9661 10.0634 18.7061 10.0634 18.3845L10.084 13.916L5.61209 13.9331C5.29047 13.9331 5.03044 13.6731 5.03044 13.3515L5.03044 10.6417C5.03044 10.3201 5.29047 10.06 5.61209 10.06L10.084 10.084L10.0669 5.61209C10.0669 5.29047 10.3269 5.03044 10.6485 5.03044L13.3583 5.03044C13.68 5.03044 13.94 5.29047 13.94 5.61209L13.916 10.084L18.3879 10.0669Z" fill="#F2F2F2"/>
</svg>
